<?xml version="1.0" standalone="no"?>
<!DOCTYPE svg PUBLIC "-//W3C//DTD SVG 1.1//EN" "http://www.w3.org/Graphics/SVG/1.1/DTD/svg11.dtd" >
<svg xmlns="http://www.w3.org/2000/svg">
<metadata></metadata>
<defs>
<font id="bauhaus_93regular" horiz-adv-x="1024" >
<font-face units-per-em="2048" ascent="1638" descent="-410" />
<missing-glyph horiz-adv-x="512" />
<glyph horiz-adv-x="0" />
<glyph unicode="&#xd;" horiz-adv-x="512" />
<glyph unicode=" "  horiz-adv-x="512" />
<glyph unicode="&#x09;" horiz-adv-x="512" />
<glyph unicode="&#xa0;" horiz-adv-x="512" />
<glyph unicode="!" horiz-adv-x="884" d="M205 209q0 100 69 169.5t167 69.5t168.5 -71t70.5 -169t-70 -166.5t-169 -68.5q-103 0 -169.5 66.5t-66.5 169.5zM251 1365h383l-7 -847h-355z" />
<glyph unicode="&#x22;" d="M135 1365h343l-78 -547h-189zM547 1365h343l-78 -547h-189z" />
<glyph unicode="#" horiz-adv-x="1383" d="M121 364l31 220h189l28 203h-188l30 220h189l50 358h239l-50 -358h175l50 358h239l-50 -358h211l-31 -220h-211l-29 -203h211l-31 -220h-211l-51 -364h-225l51 364h-202l-51 -364h-226l52 364h-189zM566 584h202l29 203h-203z" />
<glyph unicode="$" horiz-adv-x="1164" d="M225 62v362q78 -20 107 -20q54 0 86.5 30t32.5 80q0 59 -58 141l-40 58q-86 122 -86 251q0 200 142 336v225h379v-125q92 -18 151 -53v-355q-70 36 -118 36q-43 0 -71.5 -26t-28.5 -66q0 -46 47 -118q86 -132 114.5 -203t28.5 -153q0 -171 -123 -301v-313h-379v156 q-95 15 -184 58z" />
<glyph unicode="%" horiz-adv-x="1897" d="M130 1027q0 147 105 252t252 105q148 0 253 -104.5t105 -252.5q0 -149 -104.5 -253.5t-253.5 -104.5q-148 0 -252.5 105t-104.5 253zM331 1027q0 -65 46 -111t111 -46t111 46t46 111t-46 111t-111 46t-111 -46t-46 -111zM605 0l554 1365h119l-551 -1365h-122zM1053 344 q0 148 105 253t253 105q147 0 252 -105t105 -253t-105 -253t-252 -105q-148 0 -253 105t-105 253zM1254 345q0 -66 46 -112t111 -46t111 46t46 112q0 65 -46 111t-111 46t-111 -46t-46 -111z" />
<glyph unicode="&#x26;" horiz-adv-x="1561" d="M239 402q0 205 178 351q-96 122 -96 251q0 163 114.5 279t275.5 116q159 0 274 -112t115 -266q0 -21 -2 -52h-309q-8 102 -71 102q-59 0 -59 -57q0 -20 17 -45l255 -383h254q4 -47 4 -66q0 -121 -59 -228l192 -292h-356l-40 48q-117 -82 -244 -82q-184 0 -313.5 127.5 t-129.5 308.5zM558 410q0 -46 29.5 -78t72.5 -32q32 0 69 27l-122 167q-49 -36 -49 -84z" />
<glyph unicode="'" horiz-adv-x="512" d="M78 1365h356l-77 -547h-202z" />
<glyph unicode="(" horiz-adv-x="751" d="M142 553q0 232 54.5 414t188.5 398h279q-200 -421 -200 -808q0 -394 201 -816h-280q-136 221 -189.5 399t-53.5 413z" />
<glyph unicode=")" horiz-adv-x="751" d="M86 -259q201 421 201 808q0 395 -201 816h279q137 -220 190.5 -398.5t53.5 -413.5q0 -232 -54.5 -414.5t-189.5 -397.5h-279z" />
<glyph unicode="*" d="M189 1211l211 -19q8 138 151 207l47 -209q39 7 59 7q92 0 178 -89l-179 -106q43 -64 43 -134q0 -58 -38 -130l-155 136q-70 -79 -170 -79q-25 0 -69 7l85 198q-139 45 -163 211z" />
<glyph unicode="+" horiz-adv-x="1533" d="M255 555v282h366v384h290v-384h366v-282h-366v-383h-290v383h-366z" />
<glyph unicode="," horiz-adv-x="763" d="M150 201q0 101 67.5 169.5t167.5 68.5q97 0 163 -69t66 -171q0 -106 -64.5 -188t-173.5 -115v73q-100 6 -163 71t-63 161z" />
<glyph unicode="-" horiz-adv-x="457" d="M0 473v265h457v-265h-457z" />
<glyph unicode="." horiz-adv-x="775" d="M150 209q0 100 69 169.5t167 69.5t168.5 -71t70.5 -169t-70 -166.5t-169 -68.5q-103 0 -169.5 66.5t-66.5 169.5z" />
<glyph unicode="/" horiz-adv-x="710" d="M60 -259l372 1624h183l-373 -1624h-182z" />
<glyph unicode="0" horiz-adv-x="1164" d="M95 533v300q0 262 130.5 414t355.5 152t356 -152t131 -414v-300q0 -262 -131 -414.5t-356 -152.5t-355.5 152.5t-130.5 414.5zM484 453q0 -125 97 -125q98 0 98 125v460q0 125 -98 125q-97 0 -97 -125v-460z" />
<glyph unicode="1" horiz-adv-x="1164" d="M389 0v1365h387v-1365h-387z" />
<glyph unicode="2" horiz-adv-x="1164" d="M100 921q0 197 139 337.5t336 140.5q198 0 336.5 -139t138.5 -338q0 -114 -51 -212l-162 -315h228v-395h-882l438 822l15 28q18 33 18 65q0 81 -95 81q-37 0 -64.5 -27.5t-27.5 -64.5q0 -42 36 -76l-175 -312q-110 68 -169 173t-59 232z" />
<glyph unicode="3" horiz-adv-x="1164" d="M215 10v386q87 -54 151 -54q70 0 117.5 50t47.5 124q0 85 -71 135.5t-190 50.5l101 269h-151v394h723l-223 -525q120 -81 174.5 -177.5t54.5 -228.5q0 -197 -145 -332.5t-357 -135.5q-117 0 -232 44z" />
<glyph unicode="4" horiz-adv-x="1164" d="M81 407l404 958h599v-1365h-384v1042l-170 -338h84v-297h-533z" />
<glyph unicode="5" horiz-adv-x="1164" d="M172 656l147 709h634v-392h-336l-18 -62q184 -53 272 -153q121 -136 121 -326q0 -201 -147.5 -333.5t-371.5 -132.5q-151 0 -298 79v336q117 -57 206 -57q92 0 145.5 42t53.5 114q0 81 -82.5 137t-203.5 56q-46 0 -122 -17z" />
<glyph unicode="6" horiz-adv-x="1164" d="M61 475q0 94 73 296l230 634l359 -127l-266 -746q-12 -32 -12 -57q0 -54 40 -93t95 -39t93.5 39.5t38.5 95.5t-38.5 95t-93.5 39q-13 0 -39 -4l163 392q212 -92 305.5 -211.5t93.5 -296.5q0 -222 -151.5 -374t-371.5 -152q-208 0 -363.5 152.5t-155.5 356.5z" />
<glyph unicode="7" horiz-adv-x="1164" d="M122 973v392h921l-397 -1365h-415l309 973h-418z" />
<glyph unicode="8" horiz-adv-x="1164" d="M97 441q0 103 33.5 180t115.5 162q-74 98 -74 218q0 173 115 285.5t293 112.5q180 0 295.5 -112t115.5 -287q0 -118 -74 -217q85 -88 117 -162t32 -180q0 -203 -138.5 -339t-345.5 -136q-208 0 -346.5 136t-138.5 339zM415 435q0 -73 47 -121.5t118 -48.5t118 48.5 t47 121.5q0 66 -49 114t-116 48q-68 0 -116.5 -47.5t-48.5 -114.5zM467 996q0 -51 32 -84t82 -33q45 0 77.5 34t32.5 80q0 48 -33 80.5t-81 32.5q-45 0 -77.5 -33t-32.5 -77z" />
<glyph unicode="9" horiz-adv-x="1164" d="M61 874q0 221 151.5 373t371.5 152q208 0 363.5 -152.5t155.5 -356.5q0 -95 -73 -296l-229 -634l-359 127l266 746q11 32 11 58q0 54 -40 93t-95 39t-93.5 -39.5t-38.5 -95.5q0 -57 38.5 -96t94.5 -39q12 0 38 4l-162 -392q-213 93 -306.5 212t-93.5 297z" />
<glyph unicode=":" horiz-adv-x="775" d="M150 209q0 100 69 169.5t167 69.5t168.5 -71t70.5 -169t-70 -166.5t-169 -68.5q-103 0 -169.5 66.5t-66.5 169.5zM150 779q0 100 69 169.5t167 69.5t168.5 -71t70.5 -169t-70 -166.5t-169 -68.5q-103 0 -169.5 66.5t-66.5 169.5z" />
<glyph unicode=";" horiz-adv-x="775" d="M150 779q0 100 69 169.5t167 69.5t168.5 -71t70.5 -169t-70 -166.5t-169 -68.5q-103 0 -169.5 66.5t-66.5 169.5zM155 201q0 101 67.5 169.5t167.5 68.5q97 0 163 -69t66 -171q0 -106 -64.5 -188t-173.5 -115v73q-100 6 -163 71t-63 161z" />
<glyph unicode="&#x3c;" d="M68 540v305l887 484v-363l-501 -275l501 -275v-361z" />
<glyph unicode="=" horiz-adv-x="1533" d="M255 398v252h1022v-252h-1022zM255 743v252h1022v-252h-1022z" />
<glyph unicode="&#x3e;" d="M68 55v363l501 275l-500 275v361l886 -485v-305z" />
<glyph unicode="?" horiz-adv-x="1087" d="M96 917q0 182 84 297q62 85 161 135t205 50q188 0 316.5 -124.5t128.5 -308.5q0 -227 -184 -319q-60 -30 -73 -52t-13 -94h-371v63q0 125 28 184.5t102 92.5l68 30q77 34 77 96q0 36 -25 61t-61 25q-98 0 -98 -136h-345zM306 209q0 100 69 169.5t167 69.5t168.5 -71 t70.5 -169t-70 -166.5t-169 -68.5q-103 0 -169.5 66.5t-66.5 169.5z" />
<glyph unicode="@" horiz-adv-x="1533" d="M78 670q0 307 206 514t511 207q286 0 473 -170.5t187 -430.5q0 -197 -119 -327.5t-299 -130.5q-96 0 -153.5 35.5t-57.5 95.5q0 28 11 72l38 145q4 17 4 39q0 81 -79 81q-49 0 -85.5 -37.5t-36.5 -86.5q0 -64 61 -64q29 0 56 10l-90 -248q-32 -5 -53 -5 q-109 0 -173.5 64.5t-64.5 174.5q0 179 130.5 311.5t307.5 132.5q127 0 204.5 -65.5t77.5 -171.5q0 -44 -13 -97l-30 -121l-6 -21q-8 -29 -8 -50q0 -48 44 -48q68 0 124 97t56 215q0 199 -138.5 323t-361.5 124q-240 0 -396.5 -161.5t-156.5 -408.5q0 -213 122 -360 q149 -180 460 -180q177 0 363 66l39 -156q-188 -64 -405 -64q-374 0 -575 224q-174 194 -174 473z" />
<glyph unicode="A" horiz-adv-x="1212" d="M109 0v868q0 252 137.5 391.5t386.5 139.5q240 0 355 -126.5t115 -390.5v-882h-406v855q0 80 -19 111t-68 31q-95 0 -95 -142v-170h117v-360h-117v-325h-406z" />
<glyph unicode="B" horiz-adv-x="1169" d="M137 0v1365h496q441 0 441 -347q0 -172 -151 -286q219 -95 219 -339q0 -187 -129 -298q-63 -53 -135 -74t-194 -21h-77v351h69q61 0 86 15.5t25 54.5q0 66 -102 66h-78v364q112 0 112 77q0 71 -101 71h-75v-999h-406z" />
<glyph unicode="C" horiz-adv-x="1540" d="M54 678q0 305 209.5 513t516.5 208q302 0 504 -204q140 -141 198 -393l-435 -29q-73 224 -277 224q-130 0 -214.5 -90t-84.5 -229q0 -134 83 -221.5t210 -87.5q129 0 205.5 77t90.5 221l425 -11q-42 -330 -228.5 -510t-486.5 -180q-305 0 -510.5 204.5t-205.5 507.5z" />
<glyph unicode="D" horiz-adv-x="1499" d="M137 0v1365h529q348 0 545 -158q234 -189 234 -513q0 -310 -200 -506t-515 -196q-37 0 -121 4v401h65q355 0 355 297q0 279 -349 279h-137v-973h-406z" />
<glyph unicode="E" horiz-adv-x="987" d="M109 418v535q0 196 112.5 304t316.5 108h353v-392h-259q-105 0 -105 -68q0 -40 25 -55.5t89 -15.5h224v-304h-265q-54 0 -76.5 -16t-22.5 -54q0 -43 23 -56.5t94 -13.5h273v-390h-319q-225 0 -344 107.5t-119 310.5z" />
<glyph unicode="F" horiz-adv-x="986" d="M109 0v847q0 239 147.5 395.5t371.5 156.5q247 0 413 -213l-333 -243q-28 78 -99 78q-94 0 -94 -130v-169h135v-366h-135v-356h-406z" />
<glyph unicode="G" horiz-adv-x="1255" d="M54 691q0 304 197.5 506t493.5 202q101 0 224 -41v-406q-96 45 -175 45q-143 0 -233.5 -89t-90.5 -231q0 -145 84 -230t227 -85q91 0 91 53q0 40 -60 40h-97v310h387q125 -155 125 -327q0 -200 -146.5 -336t-360.5 -136q-278 0 -472 211t-194 514z" />
<glyph unicode="H" horiz-adv-x="1267" d="M137 0v1365h406v-488h113v-360h-113v-517h-406zM725 0v1365h406v-1365h-406z" />
<glyph unicode="I" horiz-adv-x="679" d="M137 0v1365h406v-1365h-406z" />
<glyph unicode="J" horiz-adv-x="623" d="M-14 -11v393q30 -13 55 -13q80 0 80 129v867h406v-920q0 -208 -118 -343.5t-299 -135.5q-53 0 -124 23z" />
<glyph unicode="K" horiz-adv-x="1321" d="M137 0v1365h406v-1365h-406zM555 754l350 611h417l-360 -619l358 -746h-456z" />
<glyph unicode="L" horiz-adv-x="687" d="M109 489v876h406v-811q0 -95 30.5 -126.5t120.5 -31.5h21v-396h-108q-222 0 -346 129.5t-124 359.5z" />
<glyph unicode="M" horiz-adv-x="1663" d="M109 0v984q0 183 111 299t288 116q210 0 323 -193q69 104 148 148.5t195 44.5q184 0 282 -116t98 -334v-949h-406v888q0 66 -10.5 87.5t-42.5 21.5q-60 0 -60 -102v-895h-406v888q0 65 -11 87t-43 22q-60 0 -60 -109v-888h-406z" />
<glyph unicode="N" horiz-adv-x="1206" d="M109 0v886q0 233 139.5 373t371.5 140q231 0 353.5 -136t122.5 -391v-872h-406v872q0 125 -89 125q-86 0 -86 -125v-872h-406z" />
<glyph unicode="O" horiz-adv-x="1543" d="M55 683q0 300 211.5 508t517.5 208q290 0 497.5 -211t207.5 -505q0 -299 -209 -508t-508 -209q-297 0 -507 210t-210 507zM471 683q0 -130 88.5 -222t212.5 -92q126 0 213.5 91.5t87.5 222.5t-87.5 222.5t-213.5 91.5q-125 0 -213 -92t-88 -222z" />
<glyph unicode="P" horiz-adv-x="1151" d="M109 0v850q0 132 26.5 216.5t90.5 157.5q72 81 180 128t223 47q208 0 349.5 -140t141.5 -347q0 -201 -127 -326q-116 -115 -350 -115l-62 1v358q123 0 123 94q0 86 -94 86q-95 0 -95 -118v-892h-406z" />
<glyph unicode="Q" horiz-adv-x="1541" d="M54 686q0 329 248 539q206 174 469 174q339 0 547 -245q168 -198 168 -457q0 -254 -149 -455q-134 -182 -374 -249v-119h-386v119q-238 66 -380.5 255t-142.5 438zM471 684q0 -162 120 -261v153h359v-153q120 103 120 261q0 127 -89 220t-210 93q-122 0 -211 -93 t-89 -220z" />
<glyph unicode="R" horiz-adv-x="1225" d="M137 0v1365h521q238 0 369 -118q146 -132 146 -335q0 -207 -181 -349l234 -563h-426l-197 440v351h32q128 0 128 110q0 97 -148 97h-72v-998h-406z" />
<glyph unicode="S" horiz-adv-x="847" d="M68 11v395q58 -37 103 -37q53 0 88.5 30.5t35.5 76.5q0 30 -57 131q-91 160 -91 320q0 193 137.5 332.5t328.5 139.5q84 0 165 -28v-389q-44 15 -68 15q-46 0 -79 -34t-33 -82q0 -41 36 -104l31 -54q84 -146 84 -282q0 -199 -141.5 -337t-345.5 -138q-98 0 -194 45z" />
<glyph unicode="T" horiz-adv-x="1054" d="M14 973v392h1027v-392h-310v-973h-406v973h-311z" />
<glyph unicode="U" horiz-adv-x="1206" d="M109 493v872h406v-871q0 -125 89 -125q86 0 86 125v871h406v-885q0 -234 -139.5 -374t-371.5 -140q-231 0 -353.5 136t-122.5 391z" />
<glyph unicode="V" horiz-adv-x="1070" d="M-68 1365h470l125 -426l138 426h453l-595 -1443z" />
<glyph unicode="W" horiz-adv-x="1663" d="M109 416v949h406v-888q0 -66 10.5 -87t42.5 -21q60 0 60 101v895h406v-888q0 -64 11 -86t43 -22q60 0 60 108v888h406v-983q0 -184 -111 -300t-287 -116q-212 0 -324 193q-69 -104 -148 -148.5t-195 -44.5q-184 0 -282 116t-98 334z" />
<glyph unicode="X" horiz-adv-x="1020" d="M-68 0l375 690l-355 675h423l159 -310l128 310h415l-355 -664l367 -701h-427l-168 331l-142 -331h-420z" />
<glyph unicode="Y" horiz-adv-x="1030" d="M-82 1365h412l176 -281l189 281h404l-386 -607v-758h-406v758z" />
<glyph unicode="Z" horiz-adv-x="1059" d="M0 973v392h1059l-424 -973h419v-392h-1030l422 973h-446z" />
<glyph unicode="[" horiz-adv-x="751" d="M91 -259v1624h569v-246h-250v-1132h250v-246h-569z" />
<glyph unicode="\" horiz-adv-x="710" d="M96 1365h183l372 -1624h-182z" />
<glyph unicode="]" horiz-adv-x="751" d="M91 -13h249v1132h-249v246h568v-1624h-568v246z" />
<glyph unicode="^" d="M18 698l292 677h404l293 -677h-320l-174 430l-175 -430h-320z" />
<glyph unicode="_" d="M0 -104h1024v-214h-1024v214z" />
<glyph unicode="`" d="M220 1329h237l211 -232h-211z" />
<glyph unicode="a" horiz-adv-x="1204" d="M54 498q0 217 151.5 368t368.5 151q242 0 381.5 -141.5t139.5 -386.5v-489h-374v462q0 79 -38.5 126t-103.5 47q-59 0 -102 -43t-43 -102q0 -62 39 -102t99 -40q49 0 91 26v-387q-46 -8 -84 -8q-225 0 -375 148t-150 371z" />
<glyph unicode="b" horiz-adv-x="1185" d="M87 534v831h374v-817q0 -199 143 -199q61 0 103.5 41.5t42.5 100.5q0 61 -40 102.5t-98 41.5q-41 0 -94 -36v412q66 6 100 6q211 0 361.5 -152t150.5 -366q0 -219 -153 -369t-376 -150q-112 0 -218.5 49t-175.5 132q-120 144 -120 373z" />
<glyph unicode="c" horiz-adv-x="1146" d="M55 507q0 211 153 361t367 150q187 0 330 -118t178 -301l-379 -14q-49 64 -124 64q-64 0 -105 -42t-41 -106q0 -65 43.5 -109t108.5 -44q95 0 135 111l371 14q-16 -216 -161 -355t-353 -139q-220 0 -371.5 153t-151.5 375z" />
<glyph unicode="d" horiz-adv-x="1185" d="M54 498q0 211 152 365t360 154q33 0 100 -6v-412q-46 36 -92 36q-58 0 -99.5 -42.5t-41.5 -102.5q0 -58 43 -99.5t103 -41.5q144 0 144 199v817h374v-831q0 -229 -120 -373q-69 -83 -175.5 -132t-218.5 -49q-223 0 -376 150t-153 368z" />
<glyph unicode="e" horiz-adv-x="1135" d="M54 498q0 219 152.5 370t374.5 151q217 0 364.5 -147.5t147.5 -363.5q0 -22 -4 -70h-567q-13 43 -13 79q0 50 18 98h190q-20 111 -125 111q-70 0 -114 -59.5t-44 -152.5q0 -97 42.5 -157t111.5 -60q56 0 108 56l213 -256q-149 -117 -331 -117q-222 0 -373 149t-151 369z " />
<glyph unicode="f" horiz-adv-x="705" d="M109 0v847q0 143 49 244q62 129 188.5 210.5t263.5 81.5l40 -1v-392q-13 1 -19 1q-71 0 -109.5 -47t-38.5 -134v-34h167v-392h-167v-384h-374z" />
<glyph unicode="g" horiz-adv-x="1181" d="M54 510q0 214 151 361t371 147q117 0 224 -47t168 -126q102 -131 102 -380v-328q0 -267 -151.5 -433.5t-394.5 -166.5q-74 0 -187 37v340q73 -40 148 -40q101 0 156 66.5t55 190.5v375q0 157 -127 157q-54 0 -94.5 -41.5t-40.5 -95.5q0 -57 38.5 -95t95.5 -38q38 0 73 18 v-343q-81 -30 -155 -30q-181 0 -306.5 137t-125.5 335z" />
<glyph unicode="h" horiz-adv-x="1095" d="M109 0v1365h374v-417q95 69 190 69q144 0 228.5 -104t84.5 -281v-632h-374v527q0 64 -13.5 86t-52.5 22q-63 0 -63 -93v-542h-374z" />
<glyph unicode="i" horiz-adv-x="594" d="M109 0v997h374v-997h-374zM110 1262q0 73 55.5 126.5t131.5 53.5t131.5 -53.5t55.5 -126.5q0 -78 -52.5 -128t-134.5 -50t-134.5 50t-52.5 128z" />
<glyph unicode="j" horiz-adv-x="728" d="M-137 -74q94 -44 159 -44q222 0 222 327v788h374v-842q0 -264 -125 -420q-159 -198 -438 -198q-85 0 -192 36v353zM233 1262q0 73 55.5 126.5t131.5 53.5t131.5 -53.5t55.5 -126.5q0 -78 -52.5 -128t-134.5 -50t-134.5 50t-52.5 128z" />
<glyph unicode="k" horiz-adv-x="1104" d="M109 0v1365h374v-1365h-374zM497 651l170 346h389l-183 -363l272 -634h-414z" />
<glyph unicode="l" horiz-adv-x="593" d="M109 0v1365h374v-1365h-374z" />
<glyph unicode="m" horiz-adv-x="1587" d="M109 0v614q0 168 113 285.5t274 117.5q166 0 298 -140q147 140 294 140q187 0 300 -136q89 -106 89 -309v-572h-374v538q0 62 -13 86t-47 24q-63 0 -63 -111v-537h-374v538q0 62 -13.5 86t-47.5 24q-62 0 -62 -111v-537h-374z" />
<glyph unicode="n" horiz-adv-x="1107" d="M109 0v556q0 195 129 328.5t316 133.5q214 0 343 -155q101 -121 101 -337v-526h-374v563q0 86 -71 86q-70 0 -70 -86v-563h-374z" />
<glyph unicode="o" horiz-adv-x="1144" d="M48 500q0 219 154 368.5t380 149.5q212 0 363.5 -152.5t151.5 -365.5q0 -216 -153.5 -368t-370.5 -152t-371 152.5t-154 367.5zM428 499q0 -62 42.5 -106t101.5 -44q60 0 102.5 44t42.5 106q0 63 -42 106.5t-103 43.5q-60 0 -102 -43.5t-42 -106.5z" />
<glyph unicode="p" horiz-adv-x="1185" d="M87 -369v832q0 229 120 373q69 83 175.5 132t218.5 49q223 0 376 -150t153 -368q0 -212 -152 -366t-360 -154q-34 0 -100 7v412q46 -37 92 -37q58 0 99.5 43t41.5 102t-43 100.5t-103 41.5q-144 0 -144 -199v-818h-374z" />
<glyph unicode="q" horiz-adv-x="1185" d="M54 499q0 218 153 368t376 150q112 0 218.5 -49t175.5 -132q120 -144 120 -373v-832h-374v818q0 199 -145 199q-59 0 -102 -41.5t-43 -100.5t41.5 -102t99.5 -43q45 0 92 37v-412q-66 -7 -100 -7q-208 0 -360 154t-152 366z" />
<glyph unicode="r" horiz-adv-x="657" d="M109 0v545q0 216 118 344.5t315 128.5q44 0 114 -11v-400q-39 22 -71 22q-102 0 -102 -156v-473h-374z" />
<glyph unicode="s" horiz-adv-x="747" d="M14 -27v396h17q90 0 128.5 37.5t44.5 131.5q8 153 28.5 215t83.5 123q110 107 305 107h113v-394q-79 0 -108.5 -29.5t-37.5 -116.5q-26 -289 -224 -408q-105 -62 -298 -62h-52z" />
<glyph unicode="t" horiz-adv-x="685" d="M68 546v819h374v-382h168v-395h-168q0 -119 37.5 -164t137.5 -45v-393q-29 -1 -43 -1q-127 0 -239.5 59t-180.5 160q-86 129 -86 342z" />
<glyph unicode="u" horiz-adv-x="1107" d="M109 457v526h374v-563q0 -85 71 -85q70 0 70 85v563h374v-556q0 -194 -129 -327.5t-316 -133.5q-213 0 -343 155q-101 121 -101 336z" />
<glyph unicode="v" horiz-adv-x="789" d="M-68 997h357l106 -269l116 269h347l-466 -1036z" />
<glyph unicode="w" horiz-adv-x="1587" d="M109 411v572h374v-537q0 -63 13 -87.5t47 -24.5q63 0 63 112v537h374v-537q0 -63 13.5 -87.5t47.5 -24.5q62 0 62 112v537h374v-614q0 -168 -113 -285.5t-274 -117.5q-166 0 -298 140q-146 -140 -294 -140q-187 0 -300 136q-89 107 -89 309z" />
<glyph unicode="x" horiz-adv-x="1081" d="M96 0v266q0 92 33.5 150t116.5 109q-83 54 -116.5 114t-33.5 153v205h374v-252q0 -39 20 -64t51 -25q71 0 71 89v252h374v-219q0 -94 -27.5 -151.5t-94.5 -101.5q68 -46 95 -101t27 -144v-280h-374v301q0 103 -72 103q-70 0 -70 -89v-315h-374z" />
<glyph unicode="y" horiz-adv-x="1098" d="M96 370v627h374v-536q0 -89 74 -89q71 0 71 98v527h374v-890q0 -249 -140 -402q-167 -182 -404 -182q-104 0 -207 40v325q76 -32 133 -32q182 0 236 205q-98 -58 -192 -58q-139 0 -229 103.5t-90 263.5z" />
<glyph unicode="z" horiz-adv-x="1014" d="M14 607v390h927l-306 -605h352v-392h-961l304 607h-316z" />
<glyph unicode="{" horiz-adv-x="751" d="M69 432v262q88 17 97 85l6 45q1 11 1 13v267q0 155 68.5 215.5t243.5 60.5l57 -1l74 -3l65 -2v-253l-44 1q-92 0 -118.5 -19.5t-26.5 -87.5v-23v-198q0 -97 -22.5 -144.5t-91.5 -96.5q65 -43 89.5 -94.5t24.5 -146.5v-205v-22q0 -71 27.5 -89t132.5 -18h29v-247 q-34 0 -65 -1l-115 -6l-71 3q-141 9 -199 70.5t-58 202.5v269q0 78 -23.5 115t-80.5 48z" />
<glyph unicode="|" d="M328 -341v1706h368v-1706h-368z" />
<glyph unicode="}" horiz-adv-x="751" d="M69 -18l44 -1q92 0 118.5 20t26.5 87v23v198q0 98 22.5 145.5t91.5 96.5q-65 42 -89.5 93.5t-24.5 146.5v206v22q0 71 -27.5 89t-132.5 18l-29 -1v247q33 0 64 2l116 6l71 -3q257 0 257 -274v-269q0 -77 23.5 -114t80.5 -48v-262q-88 -18 -97 -86l-5 -44q-2 -12 -2 -14 v-267q0 -155 -68.5 -215.5t-243.5 -60.5l-57 1l-75 3l-64 2v253z" />
<glyph unicode="~" horiz-adv-x="1365" d="M189 1255q117 299 319 299q60 0 225 -65q113 -45 144 -45q70 0 131 115l175 -147q-66 -161 -139 -228.5t-183 -67.5q-66 0 -229 67q-101 41 -139 41q-67 0 -129 -116z" />
<glyph unicode="&#xa1;" horiz-adv-x="884" d="M205 783q0 98 70 166.5t169 68.5q103 0 169.5 -66.5t66.5 -169.5q0 -100 -69 -169.5t-167 -69.5t-168.5 71t-70.5 169zM251 -375l7 847h355l21 -847h-383z" />
<glyph unicode="&#xa2;" horiz-adv-x="1164" d="M256 640q0 243 210 399v321h343v-248q57 -11 99 -30v-283q-46 17 -81 17q-66 0 -114.5 -50t-48.5 -119q0 -71 49 -120.5t118 -49.5q34 0 77 15v-289q-63 -22 -99 -28v-175h-343v248q-210 148 -210 392z" />
<glyph unicode="&#xa3;" horiz-adv-x="1164" d="M105 0l122 337l25 66q32 88 40 161h-90v187h59q-49 107 -49 213q0 175 124.5 301.5t297.5 126.5q176 0 300.5 -119.5t124.5 -287.5l-1 -44h-331v11l-1 18q-4 65 -70 65q-33 0 -56.5 -28t-23.5 -68q0 -38 27 -100q22 -51 35 -88h209v-187h-203q-3 -63 -38 -180h384v-384 h-885z" />
<glyph unicode="&#xa4;" horiz-adv-x="1498" d="M59 220l216 215q-64 124 -64 261q0 125 72 262l-222 220l206 206l226 -226q133 64 256 64q125 0 254 -62l223 221l204 -204l-216 -216q76 -132 76 -267q0 -129 -65 -258l215 -215l-203 -206l-214 214q-132 -75 -278 -75q-127 0 -268 74l-214 -211zM561 695 q0 -80 55.5 -136.5t134.5 -56.5q80 0 135.5 56.5t55.5 136.5q0 79 -56 134.5t-135 55.5t-134.5 -55.5t-55.5 -134.5z" />
<glyph unicode="&#xa5;" horiz-adv-x="1164" d="M33 1365h412l135 -281l148 281h404l-294 -512h113v-191h-164v-82h164v-191h-164v-389h-406v389h-163v191h163v82h-163v191h110z" />
<glyph unicode="&#xa6;" d="M328 314h368v-655h-368v655zM328 631v734h368v-734h-368z" />
<glyph unicode="&#xa7;" horiz-adv-x="1051" d="M61 -84l203 218q96 -87 145 -116.5t98 -29.5q35 0 62 17.5t26 39.5q-3 39 -94 78q-246 104 -334.5 193t-88.5 232q0 183 170 289q-130 105 -130 230q0 142 119.5 237t298.5 95q233 0 414 -175l-177 -203q-115 97 -211 97q-74 0 -74 -55q0 -36 63 -60l53 -21 q212 -82 299.5 -175.5t87.5 -236.5q0 -174 -149 -286q122 -104 122 -243q0 -152 -123.5 -250t-314.5 -98q-265 0 -465 223zM460 566q0 -32 22.5 -54t54.5 -22t54.5 22t22.5 54q0 31 -22.5 53t-54.5 22t-54.5 -22t-22.5 -53z" />
<glyph unicode="&#xa8;" d="M73 1265q0 71 55.5 122.5t131.5 51.5q82 0 137 -49.5t55 -124.5q0 -74 -58 -129.5t-136 -55.5q-74 0 -129.5 55.5t-55.5 129.5zM573 1263q0 71 55.5 122.5t131.5 51.5q82 0 137 -49.5t55 -124.5q0 -74 -58 -129.5t-136 -55.5q-74 0 -129.5 55.5t-55.5 129.5z" />
<glyph unicode="&#xa9;" horiz-adv-x="1533" d="M49 683q0 300 211.5 508t517.5 208q288 0 496.5 -212t208.5 -504q0 -297 -210 -507t-507 -210t-507 210t-210 507zM164 683q0 -249 176.5 -425.5t425.5 -176.5q250 0 426.5 176.5t176.5 425.5q0 246 -175.5 424t-417.5 178q-256 0 -434 -175t-178 -427zM348 692 q0 167 123 285.5t295 118.5q163 0 269.5 -84.5t145.5 -245.5l-259 -16q-41 112 -155 112q-75 0 -123 -49.5t-48 -126.5q0 -74 47 -122.5t120 -48.5q150 0 166 148l253 -7q-24 -179 -132.5 -277t-283.5 -98q-180 0 -299 117t-119 294z" />
<glyph unicode="&#xaa;" horiz-adv-x="781" d="M47 1087q0 131 95 221.5t231 90.5q151 0 238.5 -85.5t87.5 -231.5v-295h-239v279q0 99 -84 99q-35 0 -61 -24.5t-26 -58.5q0 -33 23 -56.5t56 -23.5q27 0 50 12v-235q-26 -4 -44 -4q-139 0 -233 89.5t-94 222.5zM92 577v129h623v-129h-623z" />
<glyph unicode="&#xab;" horiz-adv-x="763" d="M82 478l141 350h192l-143 -350l143 -332h-192zM348 478l145 350h188l-143 -350l143 -332h-188z" />
<glyph unicode="&#xac;" d="M68 286v320h887v-606h-356v286h-531z" />
<glyph unicode="&#xad;" horiz-adv-x="457" d="M0 473v265h457v-265h-457z" />
<glyph unicode="&#xae;" horiz-adv-x="1533" d="M49 683q0 300 211.5 508t517.5 208q288 0 496.5 -212t208.5 -504q0 -297 -210 -507t-507 -210t-507 210t-210 507zM164 683q0 -249 176.5 -425.5t425.5 -176.5q250 0 426.5 176.5t176.5 425.5q0 246 -175.5 424t-417.5 178q-256 0 -434 -175t-178 -427zM446 300v777h305 q136 0 219 -71t83 -188q0 -119 -103 -198l136 -320h-241l-115 251v202h15q63 0 63 58q0 52 -81 52h-39v-563h-242z" />
<glyph unicode="&#xb0;" horiz-adv-x="804" d="M51 1045q0 147 102.5 250.5t247.5 103.5q149 0 250.5 -103t101.5 -254q0 -144 -103.5 -245.5t-251.5 -101.5q-142 0 -244.5 103.5t-102.5 246.5zM216 1047q0 -77 54.5 -134t127.5 -57q78 0 134 55.5t56 133.5q0 79 -55.5 136.5t-130.5 57.5q-76 0 -131 -57t-55 -135z" />
<glyph unicode="&#xb1;" horiz-adv-x="1533" d="M255 0v270h1022v-270h-1022zM255 699v282h366v384h290v-384h366v-282h-366v-329h-290v329h-366z" />
<glyph unicode="&#xb2;" horiz-adv-x="763" d="M92 1097q0 119 83.5 203.5t201.5 84.5q114 0 199.5 -85t85.5 -199q0 -70 -27 -122l-101 -196h137v-237h-529l271 509q11 20 11 35q0 53 -57 53q-22 0 -38.5 -16.5t-16.5 -38.5q0 -25 22 -46l-105 -186q-137 84 -137 241z" />
<glyph unicode="&#xb3;" horiz-adv-x="763" d="M161 552v232q49 -32 90 -32t70 30.5t29 73.5q0 111 -156 111l61 162h-91v236h434l-134 -314q137 -92 137 -246q0 -116 -87.5 -197.5t-212.5 -81.5q-71 0 -140 26z" />
<glyph unicode="&#xb4;" d="M356 1097l211 232h237l-237 -232h-211z" />
<glyph unicode="&#xb5;" d="M48 -352v1335h308v-498q0 -113 24 -159q45 -87 137 -87q152 0 152 250v494h308v-983h-308v118q-51 -136 -159 -136q-97 0 -154 113v-447h-308z" />
<glyph unicode="&#xb6;" horiz-adv-x="1533" d="M78 899q0 196 138 331t339 135h150h476v-1624h-191v1310h-112v-1310h-198v1113q0 180 -130 180q-54 0 -92.5 -37.5t-38.5 -89.5q0 -54 37.5 -92.5t89.5 -38.5q41 0 83 32v-370q-60 -6 -90 -6q-188 0 -324.5 138.5t-136.5 328.5z" />
<glyph unicode="&#xb8;" d="M284 -145q55 72 55 130q0 9 -1 25h321q-26 -199 -240 -291z" />
<glyph unicode="&#xb9;" horiz-adv-x="763" d="M265 546v819h232v-819h-232z" />
<glyph unicode="&#xba;" horiz-adv-x="744" d="M43 1088q0 130 95.5 220.5t232.5 90.5q138 0 233.5 -90.5t95.5 -220.5q0 -129 -96 -220.5t-233 -91.5q-135 0 -231.5 91.5t-96.5 220.5zM73 577v129h624v-129h-624zM285 1088q0 -36 25.5 -61t60.5 -25q36 0 61.5 25t25.5 61q0 35 -25.5 60t-61.5 25t-61 -25t-25 -60z" />
<glyph unicode="&#xbb;" horiz-adv-x="763" d="M82 146l143 350l-143 332h188l145 -332l-145 -350h-188zM348 146l143 350l-143 332h192l141 -332l-141 -350h-192z" />
<glyph unicode="&#xbc;" horiz-adv-x="1775" d="M265 546v819h232v-819h-232zM530 0l555 1365h160l-552 -1365h-163zM1092 244l243 575h360v-819h-231v625l-103 -203h51v-178h-320z" />
<glyph unicode="&#xbd;" horiz-adv-x="1775" d="M265 546v819h232v-819h-232zM530 0l555 1365h160l-552 -1365h-163zM1104 551q0 120 83.5 204.5t201.5 84.5q114 0 199.5 -85t85.5 -200q0 -70 -27 -122l-101 -196h137v-237h-529l271 509q11 20 11 35q0 54 -57 54q-22 0 -38.5 -16.5t-16.5 -38.5q0 -26 22 -46l-105 -187 q-137 84 -137 241z" />
<glyph unicode="&#xbe;" horiz-adv-x="1775" d="M161 552v232q49 -32 90 -32t70 30.5t29 73.5q0 111 -156 111l61 162h-91v236h434l-134 -314q137 -92 137 -246q0 -116 -87.5 -197.5t-212.5 -81.5q-71 0 -140 26zM530 0l555 1365h160l-552 -1365h-163zM1092 244l243 575h360v-819h-231v625l-102 -203h50v-178h-320z" />
<glyph unicode="&#xbf;" horiz-adv-x="1087" d="M96 23q0 228 184 320q60 30 73 52t13 94h371v-63q0 -125 -28 -184.5t-103 -92.5l-67 -29q-77 -34 -77 -97q0 -36 25 -61t61 -25q98 0 98 136h345q0 -182 -83 -297q-63 -86 -162 -136t-205 -50q-188 0 -316.5 125t-128.5 308zM306 783q0 98 70 166.5t169 68.5 q103 0 169.5 -66.5t66.5 -169.5q0 -100 -69 -169.5t-167 -69.5t-168.5 71t-70.5 169z" />
<glyph unicode="&#xc0;" horiz-adv-x="1212" d="M109 0v868q0 252 137.5 391.5t386.5 139.5q240 0 355 -126.5t115 -390.5v-882h-406v855q0 80 -19 111t-68 31q-95 0 -95 -142v-170h117v-360h-117v-325h-406zM260 1752h279l249 -273h-249z" />
<glyph unicode="&#xc1;" horiz-adv-x="1212" d="M109 0v868q0 252 137.5 391.5t386.5 139.5q240 0 355 -126.5t115 -390.5v-882h-406v855q0 80 -19 111t-68 31q-95 0 -95 -142v-170h117v-360h-117v-325h-406zM465 1478l249 273h279l-279 -273h-249z" />
<glyph unicode="&#xc2;" horiz-adv-x="1212" d="M109 0v868q0 252 137.5 391.5t386.5 139.5q240 0 355 -126.5t115 -390.5v-882h-406v855q0 80 -19 111t-68 31q-95 0 -95 -142v-170h117v-360h-117v-325h-406zM310 1477l293 298l301 -298h-239l-62 60l-58 -60h-235z" />
<glyph unicode="&#xc3;" horiz-adv-x="1212" d="M109 0v868q0 252 137.5 391.5t386.5 139.5q240 0 355 -126.5t115 -390.5v-882h-406v855q0 80 -19 111t-68 31q-95 0 -95 -142v-170h117v-360h-117v-325h-406zM315 1485q25 267 192 267q46 0 103 -31l40 -21q23 -13 40 -13q33 0 33 43q0 5 -1 14h176q-5 -124 -51 -195.5 t-120 -71.5q-47 0 -131 47q-39 22 -55 22q-33 0 -39 -61h-187z" />
<glyph unicode="&#xc4;" horiz-adv-x="1212" d="M109 0v868q0 252 137.5 391.5t386.5 139.5q240 0 355 -126.5t115 -390.5v-882h-406v855q0 80 -19 111t-68 31q-95 0 -95 -142v-170h117v-360h-117v-325h-406zM192 1630q0 74 52.5 126.5t127.5 52.5q74 0 126.5 -52.5t52.5 -126.5q0 -75 -52.5 -127.5t-126.5 -52.5 q-75 0 -127.5 52.5t-52.5 127.5zM661 1630q0 74 52.5 126.5t127.5 52.5q74 0 126.5 -52.5t52.5 -126.5q0 -75 -52.5 -127.5t-126.5 -52.5q-75 0 -127.5 52.5t-52.5 127.5z" />
<glyph unicode="&#xc5;" horiz-adv-x="1212" d="M109 0v868q0 252 137.5 391.5t386.5 139.5q240 0 355 -126.5t115 -390.5v-882h-406v855q0 80 -19 111t-68 31q-95 0 -95 -142v-170h117v-360h-117v-325h-406zM413 1649q0 79 56.5 135.5t136.5 56.5t136.5 -56.5t56.5 -135.5q0 -80 -56.5 -136.5t-136.5 -56.5t-136.5 56.5 t-56.5 136.5zM543 1649q0 -26 18 -44t44 -18t44.5 18t18.5 44q0 25 -18.5 43t-44.5 18q-25 0 -43.5 -18t-18.5 -43z" />
<glyph unicode="&#xc6;" horiz-adv-x="1565" d="M109 0v867q0 218 106 348q69 84 175 134t216 50q148 0 274 -86q82 52 229 52h360v-388h-259q-104 0 -104 -69q0 -71 107 -71h230v-306h-265q-99 0 -99 -67q0 -72 112 -72h278v-392h-784v867q0 71 -18 100.5t-62 29.5q-90 0 -90 -112v-199h107v-358h-107v-328h-406z" />
<glyph unicode="&#xc7;" horiz-adv-x="1540" d="M54 678q0 305 209.5 513t516.5 208q302 0 504 -204q140 -141 198 -393l-435 -29q-73 224 -277 224q-130 0 -214.5 -90t-84.5 -229q0 -134 83 -221.5t210 -87.5q129 0 205.5 77t90.5 221l425 -11q-71 -557 -532 -670q-41 -240 -277 -365l-174 179q86 90 99 185 q-248 58 -397.5 247.5t-149.5 445.5z" />
<glyph unicode="&#xc8;" horiz-adv-x="987" d="M109 418v535q0 196 112.5 304t316.5 108h353v-392h-259q-105 0 -105 -68q0 -40 25 -55.5t89 -15.5h224v-304h-265q-54 0 -76.5 -16t-22.5 -54q0 -43 23 -56.5t94 -13.5h273v-390h-319q-225 0 -344 107.5t-119 310.5zM216 1752h280l249 -273h-249z" />
<glyph unicode="&#xc9;" horiz-adv-x="987" d="M109 418v535q0 196 112.5 304t316.5 108h353v-392h-259q-105 0 -105 -68q0 -40 25 -55.5t89 -15.5h224v-304h-265q-54 0 -76.5 -16t-22.5 -54q0 -43 23 -56.5t94 -13.5h273v-390h-319q-225 0 -344 107.5t-119 310.5zM489 1478l249 273h280l-280 -273h-249z" />
<glyph unicode="&#xca;" horiz-adv-x="987" d="M109 418v535q0 196 112.5 304t316.5 108h353v-392h-259q-105 0 -105 -68q0 -40 25 -55.5t89 -15.5h224v-304h-265q-54 0 -76.5 -16t-22.5 -54q0 -43 23 -56.5t94 -13.5h273v-390h-319q-225 0 -344 107.5t-119 310.5zM279 1477l292 298l301 -298h-239l-62 60l-58 -60h-234 z" />
<glyph unicode="&#xcb;" horiz-adv-x="987" d="M109 418v535q0 196 112.5 304t316.5 108h353v-392h-259q-105 0 -105 -68q0 -40 25 -55.5t89 -15.5h224v-304h-265q-54 0 -76.5 -16t-22.5 -54q0 -43 23 -56.5t94 -13.5h273v-390h-319q-225 0 -344 107.5t-119 310.5zM161 1630q0 74 52.5 126.5t127.5 52.5 q74 0 126.5 -52.5t52.5 -126.5q0 -75 -52.5 -127.5t-126.5 -52.5q-75 0 -127.5 52.5t-52.5 127.5zM631 1630q0 74 52.5 126.5t127.5 52.5q74 0 126.5 -52.5t52.5 -126.5q0 -75 -52.5 -127.5t-126.5 -52.5q-75 0 -127.5 52.5t-52.5 127.5z" />
<glyph unicode="&#xcc;" horiz-adv-x="679" d="M-7 1752h280l249 -273h-249zM136 0v1365h406v-1365h-406z" />
<glyph unicode="&#xcd;" horiz-adv-x="679" d="M137 0v1365h406v-1365h-406zM198 1478l249 273h280l-280 -273h-249z" />
<glyph unicode="&#xce;" horiz-adv-x="679" d="M43 1477l292 298l302 -298h-239l-63 60l-58 -60h-234zM137 0v1365h406v-1365h-406z" />
<glyph unicode="&#xcf;" horiz-adv-x="678" d="M-54 1630q0 71 50 121t120 50q71 0 121 -50t50 -121q0 -70 -50 -120t-121 -50q-70 0 -120 50t-50 120zM137 0v1365h406v-1365h-406zM392 1630q0 71 50 121t120 50q71 0 121 -50t50 -121q0 -70 -50 -120t-121 -50q-70 0 -120 50t-50 120z" />
<glyph unicode="&#xd0;" horiz-adv-x="1499" d="M0 543v273h137v549h528q349 0 545 -158q234 -189 234 -513q0 -310 -199.5 -506t-514.5 -196q-37 0 -121 4v401h64q355 0 355 297q0 279 -348 279h-137v-157h217v-273h-217v-543h-406v543h-137z" />
<glyph unicode="&#xd1;" horiz-adv-x="1206" d="M109 0v886q0 233 139.5 373t371.5 140q231 0 353.5 -136t122.5 -391v-872h-406v872q0 125 -89 125q-86 0 -86 -125v-872h-406zM311 1485q25 267 191 267q46 0 103 -31l40 -21q23 -13 40 -13q33 0 33 43v14h176q-6 -124 -52 -195.5t-120 -71.5q-47 0 -131 47 q-38 22 -54 22q-33 0 -39 -61h-187z" />
<glyph unicode="&#xd2;" horiz-adv-x="1543" d="M55 683q0 300 211.5 508t517.5 208q290 0 497.5 -211t207.5 -505q0 -299 -209 -508t-508 -209q-297 0 -507 210t-210 507zM425 1752h279l249 -273h-249zM471 683q0 -130 88.5 -222t212.5 -92q126 0 213.5 91.5t87.5 222.5t-87.5 222.5t-213.5 91.5q-125 0 -213 -92 t-88 -222z" />
<glyph unicode="&#xd3;" horiz-adv-x="1543" d="M55 683q0 300 211.5 508t517.5 208q290 0 497.5 -211t207.5 -505q0 -299 -209 -508t-508 -209q-297 0 -507 210t-210 507zM471 683q0 -130 88.5 -222t212.5 -92q126 0 213.5 91.5t87.5 222.5t-87.5 222.5t-213.5 91.5q-125 0 -213 -92t-88 -222zM630 1478l249 273h280 l-280 -273h-249z" />
<glyph unicode="&#xd4;" horiz-adv-x="1543" d="M55 683q0 300 211.5 508t517.5 208q290 0 497.5 -211t207.5 -505q0 -299 -209 -508t-508 -209q-297 0 -507 210t-210 507zM471 683q0 -130 88.5 -222t212.5 -92q126 0 213.5 91.5t87.5 222.5t-87.5 222.5t-213.5 91.5q-125 0 -213 -92t-88 -222zM475 1477l293 298 l301 -298h-239l-62 60l-58 -60h-235z" />
<glyph unicode="&#xd5;" horiz-adv-x="1543" d="M55 683q0 300 211.5 508t517.5 208q290 0 497.5 -211t207.5 -505q0 -299 -209 -508t-508 -209q-297 0 -507 210t-210 507zM471 683q0 -130 88.5 -222t212.5 -92q126 0 213.5 91.5t87.5 222.5t-87.5 222.5t-213.5 91.5q-125 0 -213 -92t-88 -222zM480 1485q25 267 191 267 q46 0 103 -31l40 -21q23 -13 40 -13q33 0 33 43v14h176q-6 -124 -51.5 -195.5t-119.5 -71.5q-47 0 -132 47q-38 22 -54 22q-33 0 -39 -61h-187z" />
<glyph unicode="&#xd6;" horiz-adv-x="1543" d="M55 683q0 300 211.5 508t517.5 208q290 0 497.5 -211t207.5 -505q0 -299 -209 -508t-508 -209q-297 0 -507 210t-210 507zM357 1630q0 74 52.5 126.5t127.5 52.5q74 0 126.5 -52.5t52.5 -126.5q0 -75 -52.5 -127.5t-126.5 -52.5q-75 0 -127.5 52.5t-52.5 127.5zM471 683 q0 -130 88.5 -222t212.5 -92q126 0 213.5 91.5t87.5 222.5t-87.5 222.5t-213.5 91.5q-125 0 -213 -92t-88 -222zM827 1630q0 74 52.5 126.5t127.5 52.5q74 0 126.5 -52.5t52.5 -126.5q0 -75 -52.5 -127.5t-126.5 -52.5q-75 0 -127.5 52.5t-52.5 127.5z" />
<glyph unicode="&#xd7;" horiz-adv-x="1533" d="M264 399l298 297l-298 298l205 205l298 -297l297 297l205 -205l-297 -298l297 -297l-205 -205l-297 297l-298 -297z" />
<glyph unicode="&#xd8;" horiz-adv-x="1544" d="M55 683q0 296 210 506t507 210q264 0 466 -171l114 122l61 -56l-115 -123q191 -212 191 -488q0 -296 -210.5 -506.5t-506.5 -210.5q-249 0 -449 158l-116 -124l-64 59l116 123q-204 211 -204 501zM471 683q0 -109 69 -200l418 447q-89 67 -186 67q-125 0 -213 -92 t-88 -222zM602 424q81 -55 170 -55q124 0 212.5 92t88.5 222q0 95 -58 184z" />
<glyph unicode="&#xd9;" horiz-adv-x="1206" d="M109 493v872h406v-871q0 -125 89 -125q86 0 86 125v871h406v-885q0 -234 -139.5 -374t-371.5 -140q-231 0 -353.5 136t-122.5 391zM257 1752h280l249 -273h-249z" />
<glyph unicode="&#xda;" horiz-adv-x="1206" d="M109 493v872h406v-871q0 -125 89 -125q86 0 86 125v871h406v-885q0 -234 -139.5 -374t-371.5 -140q-231 0 -353.5 136t-122.5 391zM461 1478l249 273h280l-280 -273h-249z" />
<glyph unicode="&#xdb;" horiz-adv-x="1206" d="M109 493v872h406v-871q0 -125 89 -125q86 0 86 125v871h406v-885q0 -234 -139.5 -374t-371.5 -140q-231 0 -353.5 136t-122.5 391zM306 1477l292 298l301 -298h-239l-62 60l-58 -60h-234z" />
<glyph unicode="&#xdc;" horiz-adv-x="1206" d="M109 493v872h406v-871q0 -125 89 -125q86 0 86 125v871h406v-885q0 -234 -139.5 -374t-371.5 -140q-231 0 -353.5 136t-122.5 391zM188 1630q0 74 52.5 126.5t126.5 52.5q75 0 127.5 -52.5t52.5 -126.5q0 -75 -52.5 -127.5t-127.5 -52.5q-74 0 -126.5 52.5t-52.5 127.5z M658 1630q0 74 52.5 126.5t127.5 52.5q74 0 126.5 -52.5t52.5 -126.5q0 -75 -52.5 -127.5t-126.5 -52.5q-75 0 -127.5 52.5t-52.5 127.5z" />
<glyph unicode="&#xdd;" horiz-adv-x="1030" d="M-82 1365h412l176 -281l189 281h404l-386 -607v-758h-406v758zM374 1478l249 273h279l-279 -273h-249z" />
<glyph unicode="&#xde;" horiz-adv-x="1151" d="M109 0v1365h406v-169q62 12 114 12q208 0 349.5 -140t141.5 -347q0 -201 -127 -326q-116 -115 -350 -115h-62v359q123 0 123 94q0 86 -94 86q-95 0 -95 -119v-700h-406z" />
<glyph unicode="&#xdf;" horiz-adv-x="1163" d="M98 0v965q0 177 126.5 301.5t306.5 124.5q188 0 312.5 -121t124.5 -305q0 -116 -73 -233q111 -77 156.5 -154t45.5 -187q0 -172 -126.5 -298.5t-299.5 -126.5q-73 0 -142 26v321q42 -15 74 -15q53 0 89 36.5t36 92.5q0 66 -46.5 98.5t-152.5 39.5v253l23 -1q60 0 95 28 t35 77q0 44 -29.5 72.5t-76.5 28.5q-104 0 -104 -115v-908h-374z" />
<glyph unicode="&#xe0;" horiz-adv-x="1204" d="M54 498q0 217 151.5 368t368.5 151q242 0 381.5 -141.5t139.5 -386.5v-489h-374v462q0 79 -38.5 126t-103.5 47q-59 0 -102 -43t-43 -102q0 -62 39 -102t99 -40q49 0 91 26v-387q-46 -8 -84 -8q-225 0 -375 148t-150 371zM310 1329h237l211 -232h-211z" />
<glyph unicode="&#xe1;" horiz-adv-x="1204" d="M54 498q0 217 151.5 368t368.5 151q242 0 381.5 -141.5t139.5 -386.5v-489h-374v462q0 79 -38.5 126t-103.5 47q-59 0 -102 -43t-43 -102q0 -62 39 -102t99 -40q49 0 91 26v-387q-46 -8 -84 -8q-225 0 -375 148t-150 371zM446 1097l211 232h237l-237 -232h-211z" />
<glyph unicode="&#xe2;" horiz-adv-x="1204" d="M54 498q0 217 151.5 368t368.5 151q242 0 381.5 -141.5t139.5 -386.5v-489h-374v462q0 79 -38.5 126t-103.5 47q-59 0 -102 -43t-43 -102q0 -62 39 -102t99 -40q49 0 91 26v-387q-46 -8 -84 -8q-225 0 -375 148t-150 371zM330 1093l265 268l279 -268h-234l-45 49l-51 -49 h-214z" />
<glyph unicode="&#xe3;" horiz-adv-x="1204" d="M54 498q0 217 151.5 368t368.5 151q242 0 381.5 -141.5t139.5 -386.5v-489h-374v462q0 79 -38.5 126t-103.5 47q-59 0 -102 -43t-43 -102q0 -62 39 -102t99 -40q49 0 91 26v-387q-46 -8 -84 -8q-225 0 -375 148t-150 371zM351 1098q0 108 43.5 168t122.5 60q40 0 77 -23 l40 -24q11 -7 25 -8q34 -2 40 51h154q0 -101 -47 -166t-120 -65q-41 0 -80 24l-45 28q-10 6 -21 7q-31 2 -40 -52h-149z" />
<glyph unicode="&#xe4;" horiz-adv-x="1204" d="M54 498q0 217 151.5 368t368.5 151q242 0 381.5 -141.5t139.5 -386.5v-489h-374v462q0 79 -38.5 126t-103.5 47q-59 0 -102 -43t-43 -102q0 -62 39 -102t99 -40q49 0 91 26v-387q-46 -8 -84 -8q-225 0 -375 148t-150 371zM164 1265q0 71 55.5 122.5t131.5 51.5 q82 0 137 -49.5t55 -124.5q0 -74 -58 -129.5t-136 -55.5q-74 0 -129.5 55.5t-55.5 129.5zM664 1263q0 71 55.5 122.5t131.5 51.5q82 0 137 -49.5t55 -124.5q0 -74 -58 -129.5t-136 -55.5q-74 0 -129.5 55.5t-55.5 129.5z" />
<glyph unicode="&#xe5;" horiz-adv-x="1204" d="M54 498q0 217 151.5 368t368.5 151q242 0 381.5 -141.5t139.5 -386.5v-489h-374v462q0 79 -38.5 126t-103.5 47q-59 0 -102 -43t-43 -102q0 -62 39 -102t99 -40q49 0 91 26v-387q-46 -8 -84 -8q-225 0 -375 148t-150 371zM409 1277q0 80 56.5 136.5t136.5 56.5 q79 0 135.5 -56.5t56.5 -136.5t-56.5 -136.5t-135.5 -56.5q-80 0 -136.5 56.5t-56.5 136.5zM539 1277q0 -26 18 -44t44 -18q25 0 43 18t18 44t-18 44t-43 18q-26 0 -44 -18t-18 -44z" />
<glyph unicode="&#xe6;" horiz-adv-x="1802" d="M54 495q0 211 149 366.5t353 155.5q192 0 344 -131q149 131 335 131q219 0 372 -144.5t153 -351.5q0 -26 -5 -80h-582q-14 48 -14 80q0 39 19 95h206q-23 110 -131 110q-73 0 -118 -58t-45 -152q0 -100 44 -160.5t116 -60.5q63 0 112 61l213 -255q-151 -121 -326 -121 q-75 0 -173 20h-363v458q0 92 -32.5 134.5t-102.5 42.5q-60 0 -102 -43t-42 -104q0 -59 40 -99.5t99 -40.5q37 0 83 28v-391q-53 -5 -75 -5q-221 0 -374 149.5t-153 365.5z" />
<glyph unicode="&#xe7;" horiz-adv-x="1146" d="M55 508q0 210 153 360t367 150q187 0 330 -118t178 -301l-379 -14q-48 64 -124 64q-64 0 -105 -42t-41 -106q0 -65 43.5 -109t108.5 -44q94 0 135 111l371 14q-12 -168 -103 -290t-242 -175q-26 -197 -239 -289l-135 137q54 71 54 128v18q-171 53 -271.5 189.5 t-100.5 316.5z" />
<glyph unicode="&#xe8;" horiz-adv-x="1135" d="M54 498q0 219 152.5 370t374.5 151q217 0 364.5 -147.5t147.5 -363.5q0 -22 -4 -70h-567q-13 43 -13 79q0 50 18 98h190q-20 111 -125 111q-70 0 -114 -59.5t-44 -152.5q0 -97 42.5 -157t111.5 -60q56 0 108 56l213 -256q-149 -117 -331 -117q-222 0 -373 149t-151 369z M275 1329h237l211 -232h-211z" />
<glyph unicode="&#xe9;" horiz-adv-x="1135" d="M54 498q0 219 152.5 370t374.5 151q217 0 364.5 -147.5t147.5 -363.5q0 -22 -4 -70h-567q-13 43 -13 79q0 50 18 98h190q-20 111 -125 111q-70 0 -114 -59.5t-44 -152.5q0 -97 42.5 -157t111.5 -60q56 0 108 56l213 -256q-149 -117 -331 -117q-222 0 -373 149t-151 369z M466 1097l211 232h237l-237 -232h-211z" />
<glyph unicode="&#xea;" horiz-adv-x="1135" d="M54 498q0 219 152.5 370t374.5 151q217 0 364.5 -147.5t147.5 -363.5q0 -22 -4 -70h-567q-13 43 -13 79q0 50 18 98h190q-20 111 -125 111q-70 0 -114 -59.5t-44 -152.5q0 -97 42.5 -157t111.5 -60q56 0 108 56l213 -256q-149 -117 -331 -117q-222 0 -373 149t-151 369z M295 1093l265 268l279 -268h-234l-45 49l-51 -49h-214z" />
<glyph unicode="&#xeb;" horiz-adv-x="1135" d="M54 498q0 219 152.5 370t374.5 151q217 0 364.5 -147.5t147.5 -363.5q0 -22 -4 -70h-567q-13 43 -13 79q0 50 18 98h190q-20 111 -125 111q-70 0 -114 -59.5t-44 -152.5q0 -97 42.5 -157t111.5 -60q56 0 108 56l213 -256q-149 -117 -331 -117q-222 0 -373 149t-151 369z M129 1265q0 71 55.5 122.5t131.5 51.5q82 0 137 -49.5t55 -124.5q0 -74 -58 -129.5t-136 -55.5q-74 0 -129.5 55.5t-55.5 129.5zM629 1263q0 71 55.5 122.5t131.5 51.5q82 0 137 -49.5t55 -124.5q0 -74 -58 -129.5t-136 -55.5q-74 0 -129.5 55.5t-55.5 129.5z" />
<glyph unicode="&#xec;" horiz-adv-x="593" d="M5 1329h237l211 -232h-211zM109 0v997h374v-997h-374z" />
<glyph unicode="&#xed;" horiz-adv-x="593" d="M109 0v997h374v-997h-374zM141 1097l211 232h237l-237 -232h-211z" />
<glyph unicode="&#xee;" horiz-adv-x="593" d="M25 1093l265 268l279 -268h-234l-45 49l-51 -49h-214zM109 0v997h374v-997h-374z" />
<glyph unicode="&#xef;" horiz-adv-x="593" d="M-92 1262q0 63 49.5 109.5t118.5 46.5q74 0 123.5 -44.5t49.5 -111.5t-52.5 -117t-121.5 -50q-67 0 -117 50t-50 117zM109 0v997h374v-997h-374zM344 1260q0 63 50 109.5t118 46.5q74 0 123.5 -44.5t49.5 -111.5t-52.5 -117t-121.5 -50q-67 0 -117 50t-50 117z" />
<glyph unicode="&#xf0;" horiz-adv-x="1145" d="M48 504q0 199 129.5 340t339.5 170l-145 351h270l274 -396q111 -161 146 -248.5t35 -202.5q0 -226 -149.5 -382t-366.5 -156q-229 0 -381 149.5t-152 374.5zM428 499q0 -62 42.5 -106t101.5 -44q60 0 102.5 44t42.5 106t-42 105.5t-103 43.5q-60 0 -102 -43.5t-42 -105.5 z" />
<glyph unicode="&#xf1;" horiz-adv-x="1107" d="M109 0v556q0 195 129 328.5t316 133.5q214 0 343 -155q101 -121 101 -337v-526h-374v563q0 86 -71 86q-70 0 -70 -86v-563h-374zM303 1098q0 108 43.5 168t122.5 60q40 0 77 -23l40 -24q11 -7 25 -8q34 -2 40 51h154q0 -101 -47 -166t-120 -65q-41 0 -80 24l-45 28 q-10 6 -21 7q-31 2 -40 -52h-149z" />
<glyph unicode="&#xf2;" horiz-adv-x="1144" d="M48 500q0 219 154 368.5t380 149.5q212 0 363.5 -152.5t151.5 -365.5q0 -216 -153.5 -368t-370.5 -152t-371 152.5t-154 367.5zM280 1329h237l211 -232h-211zM428 499q0 -62 42.5 -106t101.5 -44q60 0 102.5 44t42.5 106q0 63 -42 106.5t-103 43.5q-60 0 -102 -43.5 t-42 -106.5z" />
<glyph unicode="&#xf3;" horiz-adv-x="1144" d="M48 500q0 219 154 368.5t380 149.5q212 0 363.5 -152.5t151.5 -365.5q0 -216 -153.5 -368t-370.5 -152t-371 152.5t-154 367.5zM416 1097l211 232h237l-237 -232h-211zM428 499q0 -62 42.5 -106t101.5 -44q60 0 102.5 44t42.5 106q0 63 -42 106.5t-103 43.5 q-60 0 -102 -43.5t-42 -106.5z" />
<glyph unicode="&#xf4;" horiz-adv-x="1144" d="M48 500q0 219 154 368.5t380 149.5q212 0 363.5 -152.5t151.5 -365.5q0 -216 -153.5 -368t-370.5 -152t-371 152.5t-154 367.5zM300 1093l265 268l279 -268h-234l-45 49l-51 -49h-214zM428 499q0 -62 42.5 -106t101.5 -44q60 0 102.5 44t42.5 106q0 63 -42 106.5 t-103 43.5q-60 0 -102 -43.5t-42 -106.5z" />
<glyph unicode="&#xf5;" horiz-adv-x="1144" d="M48 500q0 219 154 368.5t380 149.5q212 0 363.5 -152.5t151.5 -365.5q0 -216 -153.5 -368t-370.5 -152t-371 152.5t-154 367.5zM321 1098q0 108 43.5 168t122.5 60q40 0 77 -23l40 -24q11 -7 25 -8q34 -2 40 51h154q0 -101 -47 -166t-120 -65q-41 0 -80 24l-45 28 q-10 6 -21 7q-31 2 -40 -52h-149zM428 499q0 -62 42.5 -106t101.5 -44q60 0 102.5 44t42.5 106q0 63 -42 106.5t-103 43.5q-60 0 -102 -43.5t-42 -106.5z" />
<glyph unicode="&#xf6;" horiz-adv-x="1144" d="M48 500q0 219 154 368.5t380 149.5q212 0 363.5 -152.5t151.5 -365.5q0 -216 -153.5 -368t-370.5 -152t-371 152.5t-154 367.5zM133 1265q0 71 55.5 122.5t131.5 51.5q82 0 137 -49.5t55 -124.5q0 -74 -58 -129.5t-136 -55.5q-74 0 -129.5 55.5t-55.5 129.5zM428 499 q0 -62 42.5 -106t101.5 -44q60 0 102.5 44t42.5 106q0 63 -42 106.5t-103 43.5q-60 0 -102 -43.5t-42 -106.5zM633 1263q0 71 55.5 122.5t131.5 51.5q82 0 137 -49.5t55 -124.5q0 -74 -58 -129.5t-136 -55.5q-74 0 -129.5 55.5t-55.5 129.5z" />
<glyph unicode="&#xf7;" horiz-adv-x="1533" d="M255 551v290h1022v-290h-1022zM586 291q0 74 52 128t123 54q77 0 131.5 -53t54.5 -129q0 -74 -53 -126.5t-129 -52.5q-78 0 -128.5 50.5t-50.5 128.5zM586 1098q0 74 51.5 128t123.5 54q78 0 132 -53t54 -129q0 -74 -53 -126.5t-129 -52.5q-78 0 -128.5 50.5t-50.5 128.5 z" />
<glyph unicode="&#xf8;" horiz-adv-x="1144" d="M22 43l142 130q-117 149 -117 326q0 217 152.5 367.5t372.5 150.5q212 0 362 -141l130 119l57 -61l-132 -121q107 -148 107 -314q0 -214 -154 -366.5t-370 -152.5q-196 0 -350 132l-142 -130zM413 498q0 -39 21 -79l232 212q-49 31 -95 31q-66 0 -112 -47.5t-46 -116.5z M491 357q41 -22 81 -22q65 0 111.5 48t46.5 116q0 28 -13 65z" />
<glyph unicode="&#xf9;" horiz-adv-x="1107" d="M109 457v526h374v-563q0 -85 71 -85q70 0 70 85v563h374v-556q0 -194 -129 -327.5t-316 -133.5q-213 0 -343 155q-101 121 -101 336zM262 1329h237l211 -232h-211z" />
<glyph unicode="&#xfa;" horiz-adv-x="1107" d="M109 457v526h374v-563q0 -85 71 -85q70 0 70 85v563h374v-556q0 -194 -129 -327.5t-316 -133.5q-213 0 -343 155q-101 121 -101 336zM398 1097l211 232h237l-237 -232h-211z" />
<glyph unicode="&#xfb;" horiz-adv-x="1107" d="M109 457v526h374v-563q0 -85 71 -85q70 0 70 85v563h374v-556q0 -194 -129 -327.5t-316 -133.5q-213 0 -343 155q-101 121 -101 336zM282 1093l265 268l279 -268h-234l-45 49l-51 -49h-214z" />
<glyph unicode="&#xfc;" horiz-adv-x="1107" d="M109 457v526h374v-563q0 -85 71 -85q70 0 70 85v563h374v-556q0 -194 -129 -327.5t-316 -133.5q-213 0 -343 155q-101 121 -101 336zM115 1265q0 71 55.5 122.5t131.5 51.5q82 0 137 -49.5t55 -124.5q0 -74 -58 -129.5t-136 -55.5q-74 0 -129.5 55.5t-55.5 129.5z M615 1263q0 71 55.5 122.5t131.5 51.5q82 0 137 -49.5t55 -124.5q0 -74 -58 -129.5t-136 -55.5q-74 0 -129.5 55.5t-55.5 129.5z" />
<glyph unicode="&#xfd;" horiz-adv-x="1098" d="M96 370v627h374v-536q0 -89 74 -89q71 0 71 98v527h374v-890q0 -249 -140 -402q-167 -182 -404 -182q-104 0 -207 40v325q76 -32 133 -32q182 0 236 205q-98 -58 -192 -58q-139 0 -229 103.5t-90 263.5zM393 1097l211 232h237l-237 -232h-211z" />
<glyph unicode="&#xfe;" horiz-adv-x="1185" d="M87 -369v1734h374v-368q77 20 140 20q223 0 376 -150t153 -368q0 -212 -152 -366t-360 -154q-34 0 -100 7v412q46 -37 92 -37q58 0 99.5 43t41.5 102t-43 100.5t-103 41.5q-144 0 -144 -199v-818h-374z" />
<glyph unicode="&#xff;" horiz-adv-x="1098" d="M96 370v627h374v-536q0 -89 74 -89q71 0 71 98v527h374v-890q0 -249 -140 -402q-167 -182 -404 -182q-104 0 -207 40v325q76 -32 133 -32q182 0 236 205q-98 -58 -192 -58q-139 0 -229 103.5t-90 263.5zM110 1265q0 71 55.5 122.5t131.5 51.5q82 0 137 -49.5t55 -124.5 q0 -74 -58 -129.5t-136 -55.5q-74 0 -129.5 55.5t-55.5 129.5zM610 1263q0 71 55.5 122.5t131.5 51.5q82 0 137 -49.5t55 -124.5q0 -74 -58 -129.5t-136 -55.5q-74 0 -129.5 55.5t-55.5 129.5z" />
<glyph unicode="&#x152;" horiz-adv-x="1939" d="M55 684q0 295 212.5 505t510.5 210q228 0 408 -134q73 59 129 79.5t144 20.5h385v-392h-269q-95 0 -95 -67q0 -69 101 -69h235v-303h-265q-101 0 -101 -67q0 -72 103 -72h291v-395h-344q-105 0 -173 23t-141 83q-198 -140 -414 -140q-324 0 -539 252q-178 207 -178 466z M471 684q0 -130 90 -222.5t217 -92.5t217.5 92.5t90.5 222.5t-90 221.5t-218 91.5q-127 0 -217 -92t-90 -221z" />
<glyph unicode="&#x153;" horiz-adv-x="1797" d="M48 493q0 219 149.5 371.5t364.5 152.5q187 0 340 -128q166 128 333 128q254 0 408 -190q114 -141 114 -307q0 -25 -7 -82h-581q-13 49 -13 78q0 33 19 98h204q-19 112 -132 112q-71 0 -116 -61t-45 -156q0 -94 44 -154t112 -60q60 0 116 57l209 -255 q-152 -117 -334 -117q-174 0 -331 121q-152 -121 -338 -121q-215 0 -365.5 150t-150.5 363zM428 492q0 -60 39.5 -102t96.5 -42q64 0 105 40t41 104q0 72 -37 114t-101 42q-62 0 -103 -44t-41 -112z" />
<glyph unicode="&#x178;" horiz-adv-x="1030" d="M-82 1365h412l176 -281l189 281h404l-386 -607v-758h-406v758zM101 1630q0 74 52.5 126.5t126.5 52.5q75 0 127.5 -52.5t52.5 -126.5q0 -75 -52.5 -127.5t-127.5 -52.5q-74 0 -126.5 52.5t-52.5 127.5zM570 1630q0 74 52.5 126.5t126.5 52.5q75 0 127.5 -52.5 t52.5 -126.5q0 -75 -52.5 -127.5t-127.5 -52.5q-74 0 -126.5 52.5t-52.5 127.5z" />
<glyph unicode="&#x2c6;" d="M240 1093l265 268l279 -268h-234l-45 49l-51 -49h-214z" />
<glyph unicode="&#x2dc;" d="M261 1098q0 108 43.5 168t122.5 60q40 0 77 -23l40 -24q11 -7 25 -8q34 -2 40 51h154q0 -101 -47 -166t-120 -65q-41 0 -80 24l-45 28q-10 6 -21 7q-31 2 -40 -52h-149z" />
<glyph unicode="&#x2000;" horiz-adv-x="920" />
<glyph unicode="&#x2001;" horiz-adv-x="1841" />
<glyph unicode="&#x2002;" horiz-adv-x="920" />
<glyph unicode="&#x2003;" horiz-adv-x="1841" />
<glyph unicode="&#x2004;" horiz-adv-x="613" />
<glyph unicode="&#x2005;" horiz-adv-x="460" />
<glyph unicode="&#x2006;" horiz-adv-x="306" />
<glyph unicode="&#x2007;" horiz-adv-x="306" />
<glyph unicode="&#x2008;" horiz-adv-x="230" />
<glyph unicode="&#x2009;" horiz-adv-x="368" />
<glyph unicode="&#x200a;" horiz-adv-x="102" />
<glyph unicode="&#x2010;" horiz-adv-x="457" d="M0 473v265h457v-265h-457z" />
<glyph unicode="&#x2011;" horiz-adv-x="457" d="M0 473v265h457v-265h-457z" />
<glyph unicode="&#x2012;" horiz-adv-x="457" d="M0 473v265h457v-265h-457z" />
<glyph unicode="&#x2013;" d="M64 473v265h897v-265h-897z" />
<glyph unicode="&#x2014;" horiz-adv-x="1370" d="M0 473v265h1370v-265h-1370z" />
<glyph unicode="&#x2018;" horiz-adv-x="763" d="M150 1090q0 106 64.5 188t173.5 114v-72q100 -6 163 -71t63 -161q0 -101 -67.5 -169.5t-167.5 -68.5q-97 0 -163 69t-66 171z" />
<glyph unicode="&#x2019;" horiz-adv-x="763" d="M150 1154q0 101 67.5 169.5t167.5 68.5q97 0 163 -69t66 -171q0 -106 -64.5 -188t-173.5 -114v73q-100 6 -163 70.5t-63 160.5z" />
<glyph unicode="&#x201a;" horiz-adv-x="763" d="M150 201q0 101 67.5 169.5t167.5 68.5q97 0 163 -69t66 -171q0 -106 -64.5 -188t-173.5 -115v73q-100 6 -163 71t-63 161z" />
<glyph unicode="&#x201c;" horiz-adv-x="1309" d="M150 1090q0 106 64.5 188t173.5 114v-72q100 -6 163 -71t63 -161q0 -101 -67.5 -169.5t-167.5 -68.5q-97 0 -163 69t-66 171zM696 1090q0 106 64.5 188t173.5 115v-73q100 -6 163 -71t63 -161q0 -101 -67.5 -169.5t-167.5 -68.5q-97 0 -163 69t-66 171z" />
<glyph unicode="&#x201d;" horiz-adv-x="1309" d="M150 1154q0 101 67.5 169.5t167.5 68.5q97 0 163 -69t66 -171q0 -106 -64.5 -188t-173.5 -114v73q-100 6 -163 70.5t-63 160.5zM696 1154q0 101 67.5 169.5t167.5 68.5q97 0 163 -69t66 -171q0 -106 -64.5 -188t-173.5 -114v73q-100 6 -163 70.5t-63 160.5z" />
<glyph unicode="&#x201e;" horiz-adv-x="1309" d="M150 201q0 101 67.5 169.5t167.5 68.5q97 0 163 -69t66 -171q0 -106 -64.5 -188t-173.5 -115v73q-100 6 -163 71t-63 161zM696 201q0 101 67.5 169.5t167.5 68.5q97 0 163 -69t66 -171q0 -106 -64.5 -188t-173.5 -115v73q-100 6 -163 71t-63 161z" />
<glyph unicode="&#x2022;" horiz-adv-x="1365" d="M401 694q0 118 83 201t201 83t201 -83t83 -201t-83 -201t-201 -83t-201 83t-83 201z" />
<glyph unicode="&#x2026;" horiz-adv-x="2325" d="M150 209q0 100 69 169.5t167 69.5t168.5 -71t70.5 -169t-70 -166.5t-169 -68.5q-103 0 -169.5 66.5t-66.5 169.5zM925 209q0 100 69 169.5t167 69.5t168.5 -71t70.5 -169t-70 -166.5t-169 -68.5q-103 0 -169.5 66.5t-66.5 169.5zM1700 209q0 100 69 169.5t168 69.5 q97 0 167.5 -71t70.5 -169q0 -97 -70 -166t-169 -69q-103 0 -169.5 66.5t-66.5 169.5z" />
<glyph unicode="&#x202f;" horiz-adv-x="368" />
<glyph unicode="&#x2039;" horiz-adv-x="497" d="M82 478l141 350h192l-143 -350l143 -332h-192z" />
<glyph unicode="&#x203a;" horiz-adv-x="497" d="M82 146l143 350l-143 332h192l141 -332l-141 -350h-192z" />
<glyph unicode="&#x205f;" horiz-adv-x="460" />
<glyph unicode="&#x20ac;" horiz-adv-x="1163" d="M43 520l20 119h132v100h-152l20 121h132q9 258 140 398.5t347 140.5q135 0 228.5 -50t189.5 -180l-312 -227l-10 23q-17 37 -35.5 55t-60.5 18q-98 0 -98 -125v-53h272l-18 -121h-254v-98h272l-18 -121h-254v-67q0 -125 98 -125q38 0 62 19.5t47 84.5l315 -229l-14 -20 q-83 -121 -186.5 -169.5t-223.5 -48.5q-223 0 -352.5 148t-134.5 407h-152z" />
<glyph unicode="&#x2122;" horiz-adv-x="1576" d="M5 1136v228h602v-228h-180v-549h-242v549h-180zM672 587v558q0 105 65.5 171.5t168.5 66.5q124 0 189 -106q73 106 198 106q108 0 165.5 -66.5t57.5 -191.5v-538h-242v504q0 58 -27 58q-31 0 -31 -43v-11v-508h-242v504q0 58 -28 58q-32 0 -32 -58v-504h-242z" />
<glyph unicode="&#x25fc;" horiz-adv-x="995" d="M0 0v995h995v-995h-995z" />
</font>
</defs>
</svg>
